<svg version="1.1" id="Layer_1" xmlns="http://www.w3.org/2000/svg" xmlns:xlink="http://www.w3.org/1999/xlink" x="0px" y="0px"
	 width="100%" viewBox="0 0 640 480" enable-background="new 0 0 640 480" xml:space="preserve">
<path fill="#FEFEFE" opacity="1.000000" stroke="none" 
	d="
M561.000000,481.000000 
	C401.309265,481.000000 241.618515,481.000000 81.463043,480.531342 
	C80.998871,320.375122 80.999435,160.687561 81.000000,1.000000 
	C240.690750,1.000000 400.381500,1.000000 560.536987,1.468657 
	C561.001099,161.624878 561.000549,321.312439 561.000000,481.000000 
M380.583252,377.784698 
	C380.807892,377.226898 381.032562,376.669098 381.125946,376.119934 
	C381.125946,376.119934 381.185120,376.237396 381.786224,375.739838 
	C382.231720,372.930969 382.677216,370.122070 383.287964,366.271332 
	C375.252747,366.271332 368.110168,366.271332 360.965729,365.632935 
	C360.449951,365.054932 359.934143,364.476929 359.156219,363.792053 
	C359.156219,363.792053 358.973633,364.008362 359.292999,363.252319 
	C359.228912,362.165741 359.164856,361.079163 359.572083,359.603394 
	C359.139679,358.729645 358.707275,357.855896 357.855377,356.346741 
	C356.901520,356.176544 355.947632,356.006348 354.777130,355.535980 
	C354.517273,355.692993 354.257446,355.850037 353.425507,356.348999 
	C352.163422,356.709198 350.901306,357.069397 349.536987,357.466583 
	C349.536987,357.466583 349.428619,357.457642 348.755066,357.496765 
	C348.229401,358.305573 347.703735,359.114410 346.677155,360.215637 
	C347.067078,360.814026 347.457001,361.412415 348.146362,362.533722 
	C348.198364,363.122040 348.250366,363.710358 348.102936,365.050079 
	C348.035522,365.562439 347.968079,366.074768 347.781891,366.841095 
	C347.781891,366.841095 347.998230,367.019409 347.076630,366.840576 
	C339.663086,366.840576 332.249573,366.840576 324.952698,366.840576 
	C324.952698,370.230072 324.952698,372.987610 324.952698,376.236023 
	C338.453552,376.236023 351.719543,376.236023 364.987946,377.071503 
	C365.005310,378.746643 365.022675,380.421753 364.855774,382.740814 
	C358.058228,388.676880 351.260712,394.612946 344.018433,400.937408 
	C342.719299,398.073853 342.050903,396.570801 341.357971,395.079193 
	C339.810516,391.748138 336.744812,392.284821 334.089905,392.614960 
	C332.611847,392.798767 330.628326,393.802612 329.987183,395.022583 
	C326.395538,401.857056 323.143585,408.870056 319.501495,416.387970 
	C321.332581,418.323975 323.920715,421.060333 327.208252,424.536224 
	C330.068085,418.637817 332.642975,413.327057 335.945923,408.023010 
	C336.916534,408.019226 337.887177,408.015442 339.154968,408.193726 
	C339.154968,408.193726 339.169983,408.541931 339.264191,409.157532 
	C339.575287,409.413208 339.886383,409.668915 340.728821,410.306244 
	C345.181549,416.687378 352.147430,418.845093 359.515778,421.579132 
	C359.927277,421.525055 360.338745,421.470947 361.588379,421.365509 
	C369.220612,421.626587 376.852051,421.978485 384.485931,422.043518 
	C385.540588,422.052521 386.607361,420.641754 388.303589,419.637512 
	C388.363068,418.141602 388.422546,416.645721 388.461426,414.343170 
	C388.321472,413.556641 388.181488,412.770111 388.547729,411.499268 
	C385.760712,409.177338 379.685028,409.350555 376.155243,411.967407 
	C372.021393,411.777191 367.887512,411.586975 363.161530,411.041992 
	C359.443207,410.002716 355.724915,408.963440 352.016266,407.272736 
	C352.006927,406.838562 351.997620,406.404388 352.275238,405.514038 
	C352.765259,405.306976 353.255310,405.099915 354.590637,404.961304 
	C357.485504,405.360687 359.468964,404.683960 359.435211,400.685333 
	C360.298767,399.812744 361.162323,398.940155 362.618011,397.940735 
	C363.180664,397.387360 363.743286,396.833954 364.061646,396.109375 
	C364.061646,396.109375 364.275360,396.317505 364.840912,396.072327 
	C365.706390,395.207489 366.571869,394.342682 367.030396,393.139648 
	C367.172607,393.243896 367.314819,393.348175 367.873291,393.287262 
	C368.132324,393.121002 368.326202,392.898102 368.521545,392.505768 
	C368.521545,392.505768 368.634247,392.439026 369.106964,392.042206 
	C370.158722,391.034485 371.210480,390.026764 372.988403,389.002960 
	C373.637238,387.948425 374.286072,386.893921 375.106781,385.263855 
	C375.685913,384.721954 376.265015,384.180054 377.196503,384.244690 
	C378.262604,384.101837 379.328705,383.959015 380.394806,383.816162 
	C379.897278,382.797791 379.399719,381.779449 379.027252,380.170349 
	C379.386871,379.465942 379.746490,378.761505 380.019470,378.037689 
	C380.019470,378.037689 380.067383,378.112488 380.583252,377.784698 
M411.810608,374.829987 
	C411.810608,374.829987 412.075287,374.941833 411.731384,375.158661 
	C411.731384,375.158661 411.847839,375.548157 410.948944,375.574829 
	C407.613495,375.672791 404.278015,375.770721 400.082306,376.083923 
	C400.474396,378.954742 397.093658,383.203339 402.987915,384.696991 
	C402.981323,385.331787 402.974731,385.966614 402.845551,387.131744 
	C402.629211,387.413544 402.412872,387.695374 401.563690,388.425812 
	C401.459076,389.171295 401.354462,389.916809 401.241760,391.378204 
	C400.394043,394.246674 399.546295,397.115143 398.118927,400.109680 
	C398.490387,400.707397 398.861847,401.305115 400.122803,401.704407 
	C407.038025,401.704407 413.953247,401.704407 420.868469,401.704407 
	C420.920837,402.132568 420.973236,402.560730 421.025604,402.988892 
	C419.014069,403.983002 417.002502,404.977142 414.657379,405.525330 
	C414.102600,405.983154 413.547791,406.440948 412.472717,407.401642 
	C408.983612,408.605316 405.494507,409.808990 401.729584,410.569458 
	C401.143250,410.887848 400.556915,411.206238 399.297241,411.855713 
	C395.224396,411.938324 396.060181,414.206055 396.876251,417.318054 
	C395.112457,420.931824 396.785187,422.056671 400.952454,421.974609 
	C413.039307,418.665527 423.559631,412.573151 432.979950,404.357239 
	C434.517395,403.016357 436.972260,402.727356 439.001221,402.616486 
	C439.280151,403.406860 439.559052,404.197266 440.005524,405.853790 
	C439.951752,407.905792 439.897980,409.957764 439.411835,412.329132 
	C439.270172,412.834656 439.128510,413.340149 438.486633,414.359802 
	C437.335419,414.334381 436.184174,414.308960 434.802185,413.724762 
	C433.206024,414.020233 431.411133,407.647736 429.328156,414.046753 
	C428.966034,415.160919 428.603912,416.275116 428.164093,417.977386 
	C428.349731,418.313721 428.535370,418.650055 428.929321,419.785980 
	C430.094177,421.171661 431.233643,423.715393 432.428314,423.741608 
	C437.469086,423.852173 442.526306,423.212341 448.254211,422.695740 
	C448.517578,422.327698 448.780945,421.959656 449.201904,420.909790 
	C449.840851,414.607697 450.479797,408.305634 451.158875,401.607483 
	C455.570557,401.607483 459.971832,401.607483 464.684998,401.607483 
	C464.684998,398.532562 464.684998,395.860809 464.684998,392.830994 
	C459.788147,392.830994 455.214966,392.830994 450.774323,392.830994 
	C450.774323,389.723297 450.774323,386.977173 450.774323,384.092682 
	C454.016632,383.883667 456.949036,383.694641 460.820190,383.232422 
	C460.931152,380.737518 461.042084,378.242645 461.161652,375.554352 
	C458.384705,375.554352 456.272552,375.554352 453.503601,375.122620 
	C451.642548,375.080963 449.781525,375.039307 448.199280,374.217987 
	C448.626251,372.563721 449.053223,370.909454 449.601379,368.785645 
	C454.565125,368.785645 459.625031,368.785645 464.634277,368.785645 
	C464.634277,365.864868 464.634277,363.427002 464.634277,360.430725 
	C459.389404,360.430725 454.334351,360.430725 449.382812,360.430725 
	C448.552582,354.213806 447.047638,353.570099 439.402069,355.631317 
	C439.154724,357.186310 438.907379,358.741302 438.670349,360.231323 
	C436.240173,360.455170 434.166656,360.646149 432.077698,360.838562 
	C432.077698,363.684570 432.077698,366.119446 432.077698,368.800507 
	C434.492584,368.963715 436.747101,369.116058 438.834045,369.257111 
	C439.150391,371.453094 439.432953,373.414795 439.707306,375.479370 
	C439.707306,375.479370 439.772552,375.562286 438.879242,375.585876 
	C434.973175,375.570038 431.067139,375.554199 426.503632,375.111298 
	C424.648041,375.073730 422.792480,375.036163 420.960632,374.180237 
	C421.382294,372.494537 421.803986,370.808838 422.199829,369.226379 
	C425.000366,368.576294 428.480255,370.093353 429.091248,365.442047 
	C429.897339,359.305359 425.289490,360.697876 422.076965,360.317780 
	C421.828796,358.348389 421.627563,356.751740 421.327942,354.374023 
	C418.058594,356.242279 414.027832,352.429230 410.975037,357.061615 
	C410.300079,358.107758 409.625122,359.153900 408.201447,360.452209 
	C407.688599,360.367371 407.175751,360.282562 405.982391,359.969879 
	C403.106476,360.046143 400.230591,360.122406 396.682251,360.773438 
	C396.424866,362.184204 396.167480,363.595001 395.442780,365.382446 
	C395.594513,366.252747 395.746246,367.123077 396.382599,368.725098 
	C401.450928,368.725098 406.519287,368.725098 411.763214,368.725098 
	C411.763214,371.067444 411.763214,372.540436 411.474365,374.190979 
	C411.423859,374.291779 411.309418,374.414703 411.335144,374.489105 
	C411.404907,374.690826 411.534241,374.871918 411.810608,374.829987 
M172.530533,385.138123 
	C172.530533,394.844177 172.530533,404.550232 172.530533,414.538879 
	C175.449692,414.385803 177.580856,414.274078 180.142151,414.869019 
	C175.102066,416.092072 170.061966,417.315125 164.567566,418.648438 
	C165.097214,420.204071 165.968262,422.762421 167.091049,426.060150 
	C175.618118,424.343506 183.777481,422.700897 192.169769,421.011383 
	C191.294464,418.276123 190.768875,416.633667 190.184082,414.806244 
	C196.346634,414.806244 202.081314,414.806244 208.048553,414.806244 
	C207.546967,416.971252 207.125687,418.789551 206.741608,420.447357 
	C215.470657,422.065094 223.775635,423.604218 232.504990,425.221985 
	C233.277573,422.910248 234.092438,420.472046 235.051971,417.600891 
	C230.416290,416.841095 226.315262,416.168945 222.214218,415.496796 
	C222.218933,415.223785 222.223648,414.950775 222.228363,414.677765 
	C223.549713,414.337372 224.871063,413.996948 226.282974,413.633209 
	C226.282974,407.146545 226.457550,400.818573 226.215103,394.506653 
	C226.077789,390.931946 226.413040,388.087616 229.891525,385.995056 
	C231.742554,384.881439 232.920273,382.648621 234.524399,380.778168 
	C231.720612,379.291290 229.389191,378.054932 227.339035,376.432983 
	C227.598206,376.247131 227.865768,376.074310 228.783447,375.697937 
	C229.814377,372.458313 230.845306,369.218689 232.126907,365.222748 
	C232.467987,363.365143 232.809052,361.507538 233.171585,359.533081 
	C224.283020,359.533081 216.060974,359.533081 207.261810,359.288147 
	C206.864578,359.387024 206.467361,359.485901 205.645065,359.319580 
	C205.478409,359.330200 205.311752,359.340820 205.115814,358.698853 
	C205.085556,357.844879 205.063110,356.243530 205.023911,356.243134 
	C201.413712,356.205383 197.404266,353.325989 194.574966,358.521484 
	C193.166672,361.107574 190.163788,362.825287 187.264236,364.647247 
	C186.635910,364.397156 186.007584,364.147095 185.581161,363.247284 
	C185.175522,362.066254 185.097916,360.227692 184.301346,359.830292 
	C182.112778,358.738403 179.628525,358.230896 177.250488,357.528717 
	C170.390045,355.502869 170.292374,355.553406 166.927872,362.221893 
	C171.603180,364.233002 176.278503,366.244110 180.962341,368.914246 
	C181.011566,369.350861 181.060806,369.787445 180.603149,370.728638 
	C175.060242,372.637482 169.517319,374.546326 163.794708,376.517029 
	C164.884018,378.635803 165.570129,380.805908 166.956070,382.346283 
	C167.761169,383.241119 169.689926,383.124969 172.075531,383.702423 
	C172.338669,383.902557 172.601791,384.102692 172.530533,385.138123 
M319.471527,463.646790 
	C323.300842,465.421600 326.913239,465.298706 330.847778,462.062042 
	C334.273041,457.274475 334.161530,452.077942 331.825470,447.086365 
	C330.189209,443.590057 326.804413,442.546082 322.258636,443.247894 
	C320.514069,444.219940 318.769501,445.192017 316.482239,446.651062 
	C313.463715,453.591522 314.357147,459.502197 319.471527,463.646790 
M244.183914,421.759521 
	C243.594833,426.310577 247.025162,424.690063 249.087631,424.791901 
	C250.920853,424.882446 253.865143,425.929077 253.405304,421.295288 
	C256.505432,420.448486 259.354553,420.357422 261.491028,424.020599 
	C261.654785,423.976807 261.818542,423.932983 262.711884,424.063263 
	C264.445251,424.005951 266.178619,423.948639 268.451202,423.993134 
	C268.586456,423.337372 268.721710,422.681641 269.013641,421.350281 
	C268.964752,420.893829 268.915863,420.437347 268.993927,419.053314 
	C268.993927,412.100677 268.993927,405.148071 268.993927,398.192657 
	C260.536865,398.192657 252.499496,398.192657 244.418091,398.192657 
	C244.418091,406.014893 244.418091,413.481903 244.183914,421.759521 
M248.857407,382.314819 
	C250.561707,382.236603 252.266022,382.158386 254.738983,382.335999 
	C259.301331,382.335999 263.863708,382.335999 268.380432,382.335999 
	C268.380432,379.448547 268.380432,377.232086 268.380432,375.007080 
	C260.179474,375.007080 252.315063,375.007080 243.641052,375.007080 
	C245.883530,377.432983 240.553772,383.126801 248.857407,382.314819 
M365.607727,445.524750 
	C367.081909,445.393494 368.556061,445.262207 370.030243,445.130951 
	C370.018799,444.609619 370.007385,444.088287 369.995941,443.566956 
	C367.627441,443.566956 365.258972,443.566956 362.387146,443.418182 
	C362.220764,443.472260 362.054382,443.526337 361.550598,443.385895 
	C361.550598,443.385895 361.200958,443.557434 360.689941,443.341644 
	C360.148163,443.419220 359.606384,443.496796 358.258392,443.289276 
	C356.464142,443.374146 354.669891,443.458984 352.875671,443.543854 
	C352.864685,443.983826 352.853729,444.423767 352.842773,444.863739 
	C354.632568,445.216248 356.422363,445.568787 358.218384,446.866241 
	C358.275787,452.226990 358.333221,457.587708 358.270508,463.619476 
	C360.459991,463.405975 362.649475,463.192474 364.958771,462.053192 
	C364.944366,456.694214 364.929962,451.335205 365.607727,445.524750 
M341.679199,464.325165 
	C349.360260,464.944153 351.748138,462.899292 351.913269,455.461914 
	C351.983032,452.320831 351.997223,449.174713 351.890228,446.035889 
	C351.860077,445.151398 351.311279,444.284607 351.000397,443.409698 
	C350.596771,443.482513 350.193176,443.555298 349.789551,443.628113 
	C349.789551,448.049316 349.879791,452.472900 349.764069,456.891083 
	C349.649506,461.263916 347.648468,463.387024 342.711578,461.163605 
	C342.301331,455.293701 341.891052,449.423798 341.460602,443.265106 
	C339.465729,443.372253 337.728973,443.465546 335.821594,443.567993 
	C335.821594,448.636993 335.715820,453.269897 335.857544,457.895233 
	C335.957855,461.168976 337.259155,463.701935 341.679199,464.325165 
M282.091553,461.093414 
	C282.091553,459.497559 282.091553,457.901733 282.091553,456.325684 
	C284.682526,455.864777 286.797821,455.596191 288.857208,455.096924 
	C291.971436,454.341919 293.690033,452.390900 293.445343,449.041748 
	C293.201202,445.700531 291.248230,443.786133 288.044250,443.701294 
	C284.333130,443.603027 280.608459,444.016052 276.992828,444.201813 
	C276.992828,451.024902 276.992828,457.428650 276.992828,464.023865 
	C278.822968,464.023865 280.436066,464.023865 282.637756,464.010681 
	C282.487427,463.324524 282.337097,462.638367 282.091553,461.093414 
M312.928070,259.051147 
	C312.836517,249.732422 312.744934,240.413681 312.881958,230.306091 
	C312.881958,228.582397 312.881958,226.858719 312.881958,225.135025 
	C312.554749,225.089981 312.227539,225.044937 311.900360,224.999893 
	C311.540039,226.968704 311.179718,228.937531 310.453705,231.554535 
	C308.435944,240.567581 305.752960,249.492340 304.542480,258.612549 
	C302.204834,276.225220 300.291718,293.920044 299.064819,311.640503 
	C298.628479,317.942474 300.538483,324.447479 301.737183,330.791840 
	C302.015839,332.266846 303.718201,334.566345 304.842865,334.612793 
	C312.865997,334.943970 320.909180,334.789490 329.861481,334.789490 
	C317.921936,310.901489 313.189056,286.445984 313.012573,260.496460 
	C312.958740,260.325409 312.904907,260.154388 312.928070,259.051147 
M310.268280,401.557800 
	C309.245087,401.000305 308.221893,400.442810 307.350403,399.967987 
	C306.452576,403.542908 305.662140,406.690186 304.871704,409.837463 
	C304.516846,409.800659 304.161987,409.763824 303.807129,409.727020 
	C303.481476,407.502655 303.155823,405.278259 302.986420,402.121155 
	C302.946106,394.734619 302.905762,387.348083 303.120148,379.203644 
	C303.120148,372.345734 303.120148,365.487823 303.120148,358.141022 
	C301.451141,358.224335 299.710022,358.311218 297.054718,358.203247 
	C289.047363,358.267822 281.040039,358.332397 272.264282,358.154663 
	C271.407715,359.635925 270.551178,361.117188 269.540039,362.865784 
	C267.455994,362.865784 265.203796,362.865784 262.619049,362.129059 
	C262.329590,361.093323 262.040131,360.057617 261.887970,358.322601 
	C261.824585,355.512543 260.558014,354.575226 257.185760,355.641174 
	C256.456665,355.760376 255.727570,355.879578 254.458160,355.783661 
	C250.435211,356.015533 250.435211,356.015533 250.807739,358.917755 
	C251.063614,360.008362 251.319489,361.098938 250.847305,362.595734 
	C249.237366,362.745026 247.627426,362.894287 245.145950,362.865784 
	C243.892548,362.931885 242.639145,362.997986 241.445953,363.060913 
	C241.445953,365.804474 241.445953,368.180878 241.445953,370.669830 
	C250.196960,370.669830 258.584412,370.669830 267.738953,370.901581 
	C271.098969,371.835724 271.620483,369.401337 272.837006,367.208557 
	C273.226807,367.155487 273.616577,367.102386 274.501099,367.232849 
	C274.665924,367.171448 274.830719,367.110046 275.468567,367.180664 
	C275.468567,367.180664 275.935822,367.029633 276.335114,367.284607 
	C276.611176,367.449829 276.838928,367.665955 276.972443,368.876190 
	C276.972443,374.104462 276.972443,379.332703 276.972443,384.515991 
	C274.456848,384.746033 272.560730,384.919434 270.723450,385.087433 
	C270.723450,388.155914 270.723450,390.859192 270.723450,393.572418 
	C273.054443,393.740601 275.020294,393.882416 276.995636,394.958588 
	C277.050354,404.627228 277.105072,414.295868 277.355865,424.795715 
	C280.118683,424.795715 282.881500,424.795715 286.081787,424.795715 
	C286.081787,414.402893 286.081787,404.361176 286.081787,394.124786 
	C288.625946,393.938263 290.736633,393.783508 293.011230,394.169342 
	C293.260864,394.445984 293.510468,394.722595 293.904449,395.919464 
	C294.227997,401.038025 294.187073,406.215149 294.997040,411.255554 
	C295.583588,414.905853 296.637268,418.819519 298.658569,421.824921 
	C302.049316,426.866547 307.110901,426.329468 309.230865,420.733459 
	C311.083160,415.844177 311.909698,410.537994 312.837860,405.353027 
	C313.004974,404.419495 311.466675,403.180695 310.268280,401.557800 
M333.372528,192.876160 
	C344.924591,182.339142 356.410034,171.727432 368.076019,161.318069 
	C370.957642,158.746811 372.419495,156.388092 371.311981,152.304977 
	C369.923798,147.187057 369.340973,141.851929 368.386627,136.614929 
	C361.884155,100.933350 355.389343,65.250374 348.855804,29.574486 
	C347.692749,23.223713 346.360687,16.903893 345.106628,10.569780 
	C343.296387,11.830838 342.617126,12.950036 342.001465,14.103196 
	C320.380859,54.598900 298.823578,95.128693 277.052094,135.543091 
	C275.113892,139.140976 275.203491,141.770187 277.187683,145.143082 
	C286.809143,161.498337 296.222076,177.976089 305.751587,194.385635 
	C308.629333,199.341049 311.644196,204.216858 314.884979,209.609573 
	C321.284729,203.798676 327.053162,198.560989 333.372528,192.876160 
M169.312836,216.194412 
	C191.039093,228.812012 212.792999,241.382507 234.455811,254.108093 
	C237.098022,255.660233 239.028976,255.698441 241.692490,254.142212 
	C252.032471,248.100739 262.543884,242.353394 272.966553,236.452560 
	C282.912354,230.821686 292.827179,225.136063 303.021057,219.323166 
	C301.951782,217.674194 301.209991,216.406830 300.351257,215.224411 
	C286.661438,196.373932 272.862915,177.601151 259.345306,158.628128 
	C257.025879,155.372635 254.863815,154.709503 251.097717,155.450104 
	C216.000198,162.352020 180.863937,169.056824 145.739807,175.823517 
	C134.879211,177.915833 124.021439,180.022858 113.162369,182.123154 
	C113.070328,182.513596 112.978294,182.904037 112.886253,183.294495 
	C131.488022,194.132462 150.089798,204.970428 169.312836,216.194412 
M507.652405,260.990356 
	C510.688599,258.172485 506.923645,257.883057 505.957153,257.284607 
	C467.319946,233.361267 428.598938,209.573334 389.943512,185.679306 
	C386.901855,183.799194 384.406342,183.627197 381.211517,185.422256 
	C366.559967,193.654526 351.765625,201.632141 337.060425,209.769684 
	C331.627869,212.775986 326.299286,215.970245 320.677277,219.221024 
	C322.500336,221.651199 323.816589,223.347748 325.071930,225.088257 
	C337.145966,241.828125 349.153839,258.616425 361.364929,275.255615 
	C362.555359,276.877777 365.102081,278.734772 366.814270,278.552917 
	C383.346771,276.796967 399.839172,274.657288 416.335754,272.569855 
	C446.526031,268.749695 476.711395,264.890533 507.652405,260.990356 
M296.258850,443.577515 
	C295.930695,450.394379 295.602509,457.211243 295.260406,464.317566 
	C297.929321,464.187897 299.688477,464.102417 301.407196,464.018921 
	C301.574005,460.537170 301.719910,457.491547 301.889191,453.958313 
	C307.406891,456.055511 304.128265,461.136505 306.429993,463.844269 
	C308.365509,463.844269 310.300995,463.844269 312.788574,463.844269 
	C311.602509,460.070465 310.541779,456.695374 309.840759,454.464874 
	C310.662384,451.668976 312.326294,449.083038 311.650116,447.491150 
	C310.888519,445.698303 308.166718,444.176117 306.028748,443.668640 
	C303.191528,442.995148 300.094086,443.417877 296.258850,443.577515 
M245.956467,393.792450 
	C253.372589,393.792450 260.788727,393.792450 268.383728,393.792450 
	C268.383728,390.935242 268.383728,388.576996 268.383728,386.282074 
	C260.141998,386.282074 252.270355,386.282074 243.740768,386.282074 
	C244.229111,389.022705 244.641342,391.336243 245.956467,393.792450 
M266.201233,444.894592 
	C267.206451,444.781219 268.211670,444.667847 269.951477,444.471619 
	C265.006561,442.231812 261.188171,443.103119 259.482178,446.315796 
	C257.711090,449.651001 259.051971,453.150177 263.013947,455.399109 
	C264.453156,456.216064 266.087128,456.754913 267.371643,457.755280 
	C268.156830,458.366791 268.935364,459.682129 268.815216,460.557617 
	C268.703949,461.368011 267.493134,462.210205 266.581360,462.675629 
	C265.706451,463.122223 264.593781,463.102966 262.135071,463.555267 
	C264.302155,463.837982 264.951477,463.934998 265.603638,464.005768 
	C269.194061,464.395325 272.504395,463.586029 273.661865,459.901672 
	C274.798553,456.283508 272.966187,453.535095 269.502716,451.942566 
	C267.918457,451.214081 266.291290,450.517548 264.855652,449.550934 
	C264.036316,448.999268 262.942474,447.796875 263.088318,447.132629 
	C263.279480,446.261902 264.571869,445.632996 266.201233,444.894592 
M398.499817,454.925781 
	C405.412231,454.925781 412.324646,454.925781 419.237030,454.925781 
	C419.208923,454.416138 419.180847,453.906494 419.152740,453.396851 
	C403.776733,453.396851 388.400726,453.396851 373.024750,453.396851 
	C373.015472,453.906555 373.006226,454.416290 372.996948,454.925995 
	C381.164612,454.925995 389.332275,454.925995 398.499817,454.925781 
M214.600067,455.974915 
	C227.567093,455.974915 240.534119,455.974915 253.501144,455.974915 
	C253.482712,455.462189 253.464279,454.949493 253.445847,454.436768 
	C238.016464,454.436768 222.587082,454.436768 207.157700,454.436768 
	C207.134277,454.949493 207.110855,455.462189 207.087433,455.974915 
	C209.267944,455.974915 211.448456,455.974915 214.600067,455.974915 
M271.654602,444.920288 
	C271.561859,444.955994 271.469116,444.991699 271.376404,445.027374 
	C271.439117,444.919952 271.501831,444.812500 271.654602,444.920288 
z"/>
<path fill="#000000" opacity="1.000000" stroke="none" 
	d="
M80.531342,1.000000 
	C80.999435,160.687561 80.998871,320.375122 80.999161,480.531342 
	C54.351574,481.000000 27.703144,481.000000 1.056518,481.000000 
	C1.058319,321.000000 1.058319,160.999985 1.058319,1.000000 
	C27.431986,1.000000 53.747334,1.000000 80.531342,1.000000 
z"/>
<path fill="#000000" opacity="1.000000" stroke="none" 
	d="
M561.468628,481.000000 
	C561.000549,321.312439 561.001099,161.624878 561.000854,1.468657 
	C587.648438,1.000000 614.296875,1.000000 640.943481,1.000000 
	C640.941650,161.000000 640.941650,321.000000 640.941650,481.000000 
	C614.567932,481.000000 588.252625,481.000000 561.468628,481.000000 
z"/>
<path fill="#6EF614" opacity="1.000000" stroke="none" 
	d="
M333.097046,193.099731 
	C327.053162,198.560989 321.284729,203.798676 314.884979,209.609573 
	C311.644196,204.216858 308.629333,199.341049 305.751587,194.385635 
	C296.222076,177.976089 286.809143,161.498337 277.187683,145.143082 
	C275.203491,141.770187 275.113892,139.140976 277.052094,135.543091 
	C298.823578,95.128693 320.380859,54.598900 342.001465,14.103196 
	C342.617126,12.950036 343.296387,11.830838 345.106628,10.569780 
	C346.360687,16.903893 347.692749,23.223713 348.855804,29.574486 
	C355.389343,65.250374 361.884155,100.933350 368.386627,136.614929 
	C369.340973,141.851929 369.923798,147.187057 371.311981,152.304977 
	C372.419495,156.388092 370.957642,158.746811 368.076019,161.318069 
	C356.410034,171.727432 344.924591,182.339142 333.097046,193.099731 
z"/>
<path fill="#FB037A" opacity="1.000000" stroke="none" 
	d="
M169.002197,216.001404 
	C150.089798,204.970428 131.488022,194.132462 112.886253,183.294495 
	C112.978294,182.904037 113.070328,182.513596 113.162369,182.123154 
	C124.021439,180.022858 134.879211,177.915833 145.739807,175.823517 
	C180.863937,169.056824 216.000198,162.352020 251.097717,155.450104 
	C254.863815,154.709503 257.025879,155.372635 259.345306,158.628128 
	C272.862915,177.601151 286.661438,196.373932 300.351257,215.224411 
	C301.209991,216.406830 301.951782,217.674194 303.021057,219.323166 
	C292.827179,225.136063 282.912354,230.821686 272.966553,236.452560 
	C262.543884,242.353394 252.032471,248.100739 241.692490,254.142212 
	C239.028976,255.698441 237.098022,255.660233 234.455811,254.108093 
	C212.792999,241.382507 191.039093,228.812012 169.002197,216.001404 
z"/>
<path fill="#2ADCD7" opacity="1.000000" stroke="none" 
	d="
M507.275604,261.018982 
	C476.711395,264.890533 446.526031,268.749695 416.335754,272.569855 
	C399.839172,274.657288 383.346771,276.796967 366.814270,278.552917 
	C365.102081,278.734772 362.555359,276.877777 361.364929,275.255615 
	C349.153839,258.616425 337.145966,241.828125 325.071930,225.088257 
	C323.816589,223.347748 322.500336,221.651199 320.677277,219.221024 
	C326.299286,215.970245 331.627869,212.775986 337.060425,209.769684 
	C351.765625,201.632141 366.559967,193.654526 381.211517,185.422256 
	C384.406342,183.627197 386.901855,183.799194 389.943512,185.679306 
	C428.598938,209.573334 467.319946,233.361267 505.957153,257.284607 
	C506.923645,257.883057 510.688599,258.172485 507.275604,261.018982 
z"/>
<path fill="#381D15" opacity="1.000000" stroke="none" 
	d="
M206.070145,359.584778 
	C206.467361,359.485901 206.864578,359.387024 207.797104,359.786743 
	C213.401962,360.528015 218.483521,361.097137 223.537384,360.911774 
	C227.707474,360.758820 230.562943,361.864624 231.876236,365.979065 
	C230.845306,369.218689 229.814377,372.458313 228.254807,375.521057 
	C225.389603,374.180328 223.053055,373.016541 220.765762,371.877289 
	C221.459351,369.963989 222.004807,368.459290 222.643204,366.698212 
	C218.087646,365.849701 214.351807,365.665375 213.314102,371.555084 
	C217.851685,373.292877 222.454727,375.055725 227.057785,376.818573 
	C229.389191,378.054932 231.720612,379.291290 234.524399,380.778168 
	C232.920273,382.648621 231.742554,384.881439 229.891525,385.995056 
	C226.413040,388.087616 226.077789,390.931946 226.215103,394.506653 
	C226.457550,400.818573 226.282974,407.146545 226.282974,413.633209 
	C224.871063,413.996948 223.549713,414.337372 222.228363,414.677765 
	C222.223648,414.950775 222.218933,415.223785 222.214218,415.496796 
	C226.315262,416.168945 230.416290,416.841095 235.051971,417.600891 
	C234.092438,420.472046 233.277573,422.910248 232.504990,425.221985 
	C223.775635,423.604218 215.470657,422.065094 206.741608,420.447357 
	C207.125687,418.789551 207.546967,416.971252 208.048553,414.806244 
	C202.081314,414.806244 196.346634,414.806244 190.184082,414.806244 
	C190.768875,416.633667 191.294464,418.276123 192.169769,421.011383 
	C183.777481,422.700897 175.618118,424.343506 167.091049,426.060150 
	C165.968262,422.762421 165.097214,420.204071 164.567566,418.648438 
	C170.061966,417.315125 175.102066,416.092072 180.310516,414.408356 
	C181.575562,413.832214 182.672226,413.716766 183.768906,413.601318 
	C182.080994,412.989197 180.418732,412.830322 178.797821,413.021606 
	C175.191925,413.447083 173.652374,412.214050 173.940933,408.363220 
	C174.249390,404.247070 174.156708,400.083069 173.966446,395.952484 
	C173.787399,392.065033 173.253052,388.193970 172.886597,384.243896 
	C172.898163,384.172089 172.978210,384.050629 173.444916,384.021545 
	C178.789886,383.992432 183.668167,383.992432 188.691757,383.992432 
	C188.059357,381.693085 187.590988,379.990082 187.501221,378.221924 
	C194.751877,376.202209 201.312744,373.769714 205.473495,367.035675 
	C198.559753,364.120697 196.342209,370.355957 192.829071,372.736023 
	C190.008591,371.392731 187.472275,370.184814 184.960724,368.992981 
	C184.985504,369.009125 185.018875,369.057892 185.294922,368.806335 
	C186.341400,367.348480 187.111816,366.142151 187.882233,364.935791 
	C190.163788,362.825287 193.166672,361.107574 194.574966,358.521484 
	C197.404266,353.325989 201.413712,356.205383 205.023911,356.243134 
	C205.063110,356.243530 205.085556,357.844879 205.157410,359.269897 
	C205.489395,359.755554 205.779770,359.670166 206.070145,359.584778 
M183.583664,393.637299 
	C193.004318,393.759338 202.424835,393.923676 211.845810,393.956940 
	C213.228729,393.961823 214.613876,393.343811 216.194687,392.146515 
	C215.683395,391.465454 215.179337,390.196716 214.659744,390.190338 
	C204.704590,390.067871 194.746704,390.041443 184.793243,390.215240 
	C184.178818,390.225983 183.596176,392.055756 183.583664,393.637299 
M206.985580,397.633209 
	C201.978561,397.549255 196.971542,397.465271 191.661499,396.733826 
	C188.786560,397.016693 185.911636,397.299561 182.812561,398.119019 
	C182.884094,399.048401 182.955643,399.977783 183.556122,401.559418 
	C193.834274,401.686493 204.112320,401.829529 214.390854,401.894043 
	C214.912704,401.897339 215.438812,401.223724 216.095367,400.183380 
	C215.447815,399.244171 214.800247,398.304962 213.691177,396.691772 
	C211.745499,396.916077 209.799805,397.140381 206.985580,397.633209 
M192.116409,405.422150 
	C190.432465,405.339233 188.748520,405.256348 186.764999,404.657349 
	C186.155014,404.832123 185.545013,405.006866 184.398483,405.435150 
	C181.418335,406.073700 181.957855,407.286682 184.403259,409.415009 
	C194.142654,409.569641 203.881897,409.742188 213.621887,409.827789 
	C214.126175,409.832214 214.636993,409.094269 215.509628,408.383667 
	C215.640976,407.380035 215.772324,406.376373 215.803299,404.951874 
	C215.518265,405.024139 215.233231,405.096405 214.158798,405.424164 
	C212.790756,405.338501 211.422699,405.252869 209.850723,404.786713 
	C209.549500,404.913269 209.248260,405.039795 208.338669,405.411407 
	C207.917221,405.329529 207.495789,405.247681 206.529694,404.508636 
	C201.995209,404.728577 197.460739,404.948517 192.116409,405.422150 
M203.641083,381.034760 
	C202.640533,381.727814 201.639999,382.420837 200.088089,383.495819 
	C207.220978,383.495819 213.546829,383.495819 219.872665,383.495819 
	C217.769073,381.715607 215.443039,380.812195 213.369705,379.507233 
	C209.932297,377.343811 206.944016,377.386566 203.641083,381.034760 
z"/>
<path fill="#391E15" opacity="1.000000" stroke="none" 
	d="
M402.005402,411.012634 
	C405.494507,409.808990 408.983612,408.605316 413.023376,407.159393 
	C414.046356,406.601837 414.518646,406.286530 414.990936,405.971222 
	C417.002502,404.977142 419.014069,403.983002 421.025604,402.988892 
	C420.973236,402.560730 420.920837,402.132568 420.868469,401.704407 
	C413.953247,401.704407 407.038025,401.704407 399.564148,401.486755 
	C398.903168,400.840607 398.800873,400.412109 398.698578,399.983612 
	C399.546295,397.115143 400.394043,394.246674 401.503418,390.752441 
	C401.908905,389.410187 402.052704,388.693665 402.196533,387.977173 
	C402.412872,387.695374 402.629211,387.413544 403.370056,386.840271 
	C406.684387,386.702972 409.474243,386.857208 412.563812,387.027985 
	C411.948608,389.135986 411.446747,390.855499 410.868164,392.837952 
	C420.640259,392.837952 430.218689,392.837952 439.791260,392.837952 
	C439.791260,389.706940 439.791260,386.841156 439.791260,384.062012 
	C427.273254,384.062012 415.134491,384.062012 402.995758,384.062012 
	C397.093658,383.203339 400.474396,378.954742 400.782715,376.300049 
	C405.634399,376.383850 409.785675,376.251495 414.283752,376.049988 
	C415.097351,376.028656 415.564117,376.076447 416.337158,376.402069 
	C430.886719,376.679871 445.129974,376.679871 459.881470,376.679871 
	C459.881470,379.612976 459.881470,381.559296 459.881470,383.505585 
	C456.949036,383.694641 454.016632,383.883667 450.774323,384.092682 
	C450.774323,386.977173 450.774323,389.723297 450.774323,392.830994 
	C455.214966,392.830994 459.788147,392.830994 464.684998,392.830994 
	C464.684998,395.860809 464.684998,398.532562 464.684998,401.607483 
	C459.971832,401.607483 455.570557,401.607483 451.158875,401.607483 
	C450.479797,408.305634 449.840851,414.607697 448.822998,421.398193 
	C448.155212,422.206726 447.866364,422.526886 447.577515,422.847015 
	C442.526306,423.212341 437.469086,423.852173 432.428314,423.741608 
	C431.233643,423.715393 430.094177,421.171661 428.862244,419.090820 
	C428.610748,418.060211 428.426300,417.724762 428.241821,417.389313 
	C428.603912,416.275116 428.966034,415.160919 430.006165,414.086548 
	C432.133759,414.178741 433.583374,414.231140 435.032959,414.283569 
	C436.184174,414.308960 437.335419,414.334381 439.030884,414.032104 
	C439.664795,413.139557 439.754517,412.574646 439.844238,412.009766 
	C439.897980,409.957764 439.951752,407.905792 440.035278,405.059998 
	C439.711029,403.494904 439.357056,402.723572 439.003082,401.952209 
	C436.972260,402.727356 434.517395,403.016357 432.979950,404.357239 
	C423.559631,412.573151 413.039307,418.665527 400.515625,421.604950 
	C399.113983,419.690887 398.149170,418.146515 397.184326,416.602142 
	C396.060181,414.206055 395.224396,411.938324 399.907959,411.747131 
	C401.014252,411.429932 401.509827,411.221313 402.005402,411.012634 
z"/>
<path fill="#371C13" opacity="1.000000" stroke="none" 
	d="
M292.847351,393.628754 
	C290.736633,393.783508 288.625946,393.938263 286.081787,394.124786 
	C286.081787,404.361176 286.081787,414.402893 286.081787,424.795715 
	C282.881500,424.795715 280.118683,424.795715 277.531494,424.070557 
	C277.812286,413.902222 277.927979,404.459106 277.978424,395.015686 
	C277.980194,394.686981 277.331604,394.354828 276.986145,394.024261 
	C275.020294,393.882416 273.054443,393.740601 270.723450,393.572418 
	C270.723450,390.859192 270.723450,388.155914 270.723450,385.087433 
	C272.560730,384.919434 274.456848,384.746033 276.972443,384.515991 
	C276.972443,379.332703 276.972443,374.104462 276.918457,368.151794 
	C276.554932,367.294830 276.245392,367.162231 275.935822,367.029633 
	C275.935822,367.029633 275.468567,367.180664 275.147400,366.948975 
	C274.552917,366.827972 274.279633,366.938629 274.006378,367.049255 
	C273.616577,367.102386 273.226807,367.155487 272.203430,367.212067 
	C270.037170,368.367004 268.504486,369.518402 266.971832,370.669830 
	C258.584412,370.669830 250.196960,370.669830 241.445953,370.669830 
	C241.445953,368.180878 241.445953,365.804474 241.445953,363.060913 
	C242.639145,362.997986 243.892548,362.931885 245.822998,363.213074 
	C248.191803,363.103455 249.883591,362.646484 251.575378,362.189514 
	C251.319489,361.098938 251.063614,360.008362 251.111237,358.348145 
	C252.609329,357.185272 253.803909,356.592041 254.998474,355.998779 
	C255.727570,355.879578 256.456665,355.760376 257.723511,355.984222 
	C259.424438,357.225464 260.587555,358.123688 261.750702,359.021881 
	C262.040131,360.057617 262.329590,361.093323 262.985474,362.780945 
	C268.334198,365.128693 271.808929,363.926422 273.032684,358.396973 
	C281.040039,358.332397 289.047363,358.267822 297.633789,358.637024 
	C301.172455,360.004364 302.316711,361.746613 302.179474,365.093018 
	C301.976868,370.031525 302.596161,375.003693 302.865448,379.961548 
	C302.905762,387.348083 302.946106,394.734619 302.681610,402.795837 
	C302.676147,407.063538 300.487335,411.403534 306.252930,414.284821 
	C306.737762,411.148682 306.861145,408.434814 307.656708,405.934906 
	C308.121490,404.474304 309.660187,403.355438 310.715759,402.082825 
	C311.466675,403.180695 313.004974,404.419495 312.837860,405.353027 
	C311.909698,410.537994 311.083160,415.844177 309.230865,420.733459 
	C307.110901,426.329468 302.049316,426.866547 298.658569,421.824921 
	C296.637268,418.819519 295.583588,414.905853 294.997040,411.255554 
	C294.187073,406.215149 294.227997,401.038025 293.926666,394.999084 
	C293.948883,385.167236 293.948883,376.255737 293.948883,367.567383 
	C290.880371,367.567383 288.626831,367.567383 286.353973,367.567383 
	C286.353973,373.857513 286.353973,379.784973 286.353973,386.076172 
	C288.632935,385.809296 290.553528,385.584381 292.847351,385.315765 
	C292.847351,388.029663 292.847351,390.829193 292.847351,393.628754 
z"/>
<path fill="#351B11" opacity="1.000000" stroke="none" 
	d="
M352.006592,407.924164 
	C355.724915,408.963440 359.443207,410.002716 363.705627,411.610352 
	C370.157959,412.161255 376.066223,412.143768 382.348907,412.036133 
	C383.487579,411.998047 384.251770,412.050079 385.105469,412.256653 
	C385.458679,412.305298 385.722443,412.199371 386.320618,411.995667 
	C387.117157,411.926422 387.579346,411.955017 388.041504,411.983582 
	C388.181488,412.770111 388.321472,413.556641 388.354858,414.724243 
	C388.248291,415.105316 388.029816,415.011078 387.798218,415.130615 
	C387.649170,415.820618 387.731750,416.391113 387.836487,417.330536 
	C387.795288,418.429077 387.731903,419.158661 387.668518,419.888245 
	C386.607361,420.641754 385.540588,422.052521 384.485931,422.043518 
	C376.852051,421.978485 369.220612,421.626587 360.897980,421.253540 
	C359.807190,421.155182 359.406830,421.168793 359.006439,421.182434 
	C352.147430,418.845093 345.181549,416.687378 340.399902,409.815430 
	C339.770630,409.063721 339.470306,408.802826 339.169983,408.541931 
	C339.169983,408.541931 339.154968,408.193726 338.969788,407.766968 
	C338.075684,406.259003 337.366760,405.177795 336.301331,403.552856 
	C335.814941,405.556580 335.516418,406.786407 335.217896,408.016266 
	C332.642975,413.327057 330.068085,418.637817 327.208252,424.536224 
	C323.920715,421.060333 321.332581,418.323975 319.501495,416.387970 
	C323.143585,408.870056 326.395538,401.857056 329.987183,395.022583 
	C330.628326,393.802612 332.611847,392.798767 334.089905,392.614960 
	C336.744812,392.284821 339.810516,391.748138 341.357971,395.079193 
	C342.050903,396.570801 342.719299,398.073853 344.018433,400.937408 
	C351.260712,394.612946 358.058228,388.676880 365.244873,382.281860 
	C366.750977,379.860565 367.868011,377.898224 368.688904,375.643372 
	C356.100494,375.229645 343.808289,375.098663 331.515839,374.991425 
	C325.440491,374.938416 325.006836,374.334259 327.039734,367.998810 
	C329.725037,367.998810 332.539307,368.117188 335.339783,367.971130 
	C339.564301,367.750824 343.779236,367.345856 347.998230,367.019409 
	C347.998230,367.019409 347.781891,366.841095 348.165222,366.761200 
	C348.466461,365.887085 348.384430,365.092896 348.302368,364.298676 
	C348.250366,363.710358 348.198364,363.122040 348.030029,361.943542 
	C347.900635,360.917480 347.887604,360.481567 348.248352,359.974731 
	C348.890961,359.088409 349.159790,358.273041 349.428650,357.457642 
	C349.428619,357.457642 349.536987,357.466583 349.984009,357.619354 
	C352.338257,357.772125 354.245483,357.772125 356.088562,357.772125 
	C357.097778,359.953613 358.035706,361.980988 358.973633,364.008362 
	C358.973633,364.008362 359.156219,363.792053 359.119965,364.138794 
	C359.076660,364.935455 359.069641,365.385437 359.118042,366.246307 
	C363.593323,367.108765 368.006042,367.838074 372.434570,367.951782 
	C380.675781,368.163361 380.679626,368.014099 381.185120,376.237396 
	C381.185120,376.237396 381.125946,376.119934 380.891815,376.233154 
	C380.460907,376.935059 380.264130,377.523773 380.067383,378.112488 
	C380.067383,378.112488 380.019470,378.037689 379.709412,378.079285 
	C378.932465,379.079529 378.465607,380.038208 377.999359,380.998444 
	C378.000000,381.000000 377.997314,380.998901 377.625885,381.010254 
	C376.176239,382.702454 375.097992,384.383270 373.973145,386.334381 
	C373.427765,387.119904 372.928925,387.635162 372.057800,388.210083 
	C370.668427,389.659515 369.651337,391.049255 368.634247,392.439026 
	C368.634247,392.439026 368.521545,392.505768 368.201965,392.494934 
	C367.740631,392.806885 367.598816,393.129669 367.457031,393.452484 
	C367.314819,393.348175 367.172607,393.243896 366.857422,393.198639 
	C365.881409,394.277588 365.078369,395.297546 364.275360,396.317505 
	C364.275360,396.317505 364.061646,396.109375 363.863159,396.119202 
	C363.118408,396.775208 362.572144,397.421387 362.025879,398.067566 
	C361.162323,398.940155 360.298767,399.812744 358.922150,400.984680 
	C356.854492,402.486969 355.299896,403.689880 353.745300,404.892822 
	C353.255310,405.099915 352.765259,405.306976 351.845154,405.749512 
	C351.131012,406.327850 350.846924,406.670654 350.562866,407.013489 
	C351.044098,407.317078 351.525360,407.620605 352.006592,407.924164 
z"/>
<path fill="#5C8E3B" opacity="1.000000" stroke="none" 
	d="
M312.653381,231.094955 
	C312.744934,240.413681 312.836517,249.732422 312.746674,259.618774 
	C312.670349,260.463593 312.775452,260.740753 312.880524,261.017944 
	C313.189056,286.445984 317.921936,310.901489 329.861481,334.789490 
	C320.909180,334.789490 312.865997,334.943970 304.842865,334.612793 
	C303.718201,334.566345 302.015839,332.266846 301.737183,330.791840 
	C300.538483,324.447479 298.628479,317.942474 299.064819,311.640503 
	C300.291718,293.920044 302.204834,276.225220 304.542480,258.612549 
	C305.752960,249.492340 308.435944,240.567581 310.942688,231.259491 
	C311.838898,231.007965 312.246124,231.051468 312.653381,231.094955 
z"/>
<path fill="#361C11" opacity="1.000000" stroke="none" 
	d="
M268.866974,419.980896 
	C268.915863,420.437347 268.964752,420.893829 268.669128,421.934387 
	C268.187103,422.976135 268.049561,423.433716 267.911987,423.891327 
	C266.178619,423.948639 264.445251,424.005951 262.266846,423.821777 
	C261.555054,423.661926 261.288300,423.743530 261.021545,423.825134 
	C259.354553,420.357422 256.505432,420.448486 252.856812,421.810791 
	C250.015472,422.859467 247.480377,424.604187 246.002289,420.592468 
	C246.001297,414.629089 246.226044,409.125793 245.921555,403.651947 
	C245.706421,399.784149 247.184784,398.713196 250.814301,398.951050 
	C254.956161,399.222473 259.145630,399.242279 263.284271,398.947723 
	C267.061646,398.678802 268.149109,400.055878 268.089172,403.762085 
	C268.001831,409.162750 268.575256,414.574097 268.866974,419.980896 
M260.011383,407.872528 
	C257.982178,406.869843 255.952957,405.867157 253.311996,404.562195 
	C253.311996,408.557648 253.311996,410.947906 253.311996,413.432007 
	C255.610535,413.432007 257.642792,413.432007 260.017731,413.432007 
	C260.017731,411.645752 260.017731,410.189636 260.011383,407.872528 
z"/>
<path fill="#341A11" opacity="1.000000" stroke="none" 
	d="
M439.715546,375.376465 
	C439.432953,373.414795 439.150391,371.453094 438.834045,369.257111 
	C436.747101,369.116058 434.492584,368.963715 432.077698,368.800507 
	C432.077698,366.119446 432.077698,363.684570 432.077698,360.838562 
	C434.166656,360.646149 436.240173,360.455170 438.670349,360.231323 
	C438.907379,358.741302 439.154724,357.186310 439.403137,355.630859 
	C447.047638,353.570099 448.552582,354.213806 449.382812,360.430725 
	C454.334351,360.430725 459.389404,360.430725 464.634277,360.430725 
	C464.634277,363.427002 464.634277,365.864868 464.634277,368.785645 
	C459.625031,368.785645 454.565125,368.785645 449.601379,368.785645 
	C449.053223,370.909454 448.626251,372.563721 447.611267,374.552948 
	C444.587341,375.050751 442.151428,375.213623 439.715546,375.376465 
z"/>
<path fill="#361B12" opacity="1.000000" stroke="none" 
	d="
M411.545898,356.972687 
	C414.027832,352.429230 418.058594,356.242279 421.327942,354.374023 
	C421.627563,356.751740 421.828796,358.348389 422.076965,360.317780 
	C425.289490,360.697876 429.897339,359.305359 429.091248,365.442047 
	C428.480255,370.093353 425.000366,368.576294 422.199829,369.226379 
	C421.803986,370.808838 421.382294,372.494537 420.507446,374.540710 
	C417.394623,374.914703 414.734955,374.928253 412.075287,374.941833 
	C412.075287,374.941833 411.810608,374.829987 411.912720,374.702087 
	C411.930939,374.387238 411.847076,374.200348 411.763214,374.013428 
	C411.763214,372.540436 411.763214,371.067444 411.763214,368.725098 
	C406.519287,368.725098 401.450928,368.725098 396.246613,367.993958 
	C396.043762,366.510468 395.976929,365.758118 395.910095,365.005768 
	C396.167480,363.595001 396.424866,362.184204 397.135742,360.872009 
	C400.613800,360.712982 403.638336,360.455353 406.662903,360.197754 
	C407.175751,360.282562 407.688599,360.367371 408.904663,360.481689 
	C410.253876,359.331665 410.899872,358.152161 411.545898,356.972687 
z"/>
<path fill="#3B241E" opacity="1.000000" stroke="none" 
	d="
M296.683655,443.473541 
	C300.094086,443.417877 303.191528,442.995148 306.028748,443.668640 
	C308.166718,444.176117 310.888519,445.698303 311.650116,447.491150 
	C312.326294,449.083038 310.662384,451.668976 309.840759,454.464874 
	C310.541779,456.695374 311.602509,460.070465 312.788574,463.844269 
	C310.300995,463.844269 308.365509,463.844269 306.428223,463.842621 
	C304.128265,461.136505 307.406891,456.055511 301.889191,453.958313 
	C301.719910,457.491547 301.574005,460.537170 301.407196,464.018921 
	C299.688477,464.102417 297.929321,464.187897 295.260406,464.317566 
	C295.602509,457.211243 295.930695,450.394379 296.683655,443.473541 
M304.132294,452.290955 
	C304.763397,450.657135 305.880646,449.006744 305.825745,447.396301 
	C305.797180,446.559082 303.698517,445.792450 302.534973,444.993958 
	C302.064362,445.294617 301.593719,445.595306 301.123108,445.895966 
	C301.822327,448.069733 302.521515,450.243530 304.132294,452.290955 
z"/>
<path fill="#F5F3F0" opacity="1.000000" stroke="none" 
	d="
M402.991821,384.379517 
	C415.134491,384.062012 427.273254,384.062012 439.791260,384.062012 
	C439.791260,386.841156 439.791260,389.706940 439.791260,392.837952 
	C430.218689,392.837952 420.640259,392.837952 410.868164,392.837952 
	C411.446747,390.855499 411.948608,389.135986 412.563812,387.027985 
	C409.474243,386.857208 406.684387,386.702972 403.431335,386.575073 
	C402.974731,385.966614 402.981323,385.331787 402.991821,384.379517 
z"/>
<path fill="#3E251D" opacity="1.000000" stroke="none" 
	d="
M245.505035,393.721130 
	C244.641342,391.336243 244.229111,389.022705 243.740768,386.282074 
	C252.270355,386.282074 260.141998,386.282074 268.383728,386.282074 
	C268.383728,388.576996 268.383728,390.935242 268.383728,393.792450 
	C260.788727,393.792450 253.372589,393.792450 245.505035,393.721130 
z"/>
<path fill="#361E14" opacity="1.000000" stroke="none" 
	d="
M171.113052,383.463745 
	C169.689926,383.124969 167.761169,383.241119 166.956070,382.346283 
	C165.570129,380.805908 164.884018,378.635803 163.794708,376.517029 
	C169.517319,374.546326 175.060242,372.637482 181.209686,370.429810 
	C182.883759,369.773285 183.951324,369.415588 185.018875,369.057892 
	C185.018875,369.057892 184.985504,369.009125 185.020706,369.341217 
	C185.706650,372.123535 186.357391,374.573792 186.654434,377.071167 
	C181.809250,379.064209 177.317749,381.010040 172.597748,382.971802 
	C171.950485,383.146362 171.531769,383.305054 171.113052,383.463745 
z"/>
<path fill="#28130E" opacity="1.000000" stroke="none" 
	d="
M282.049164,464.023865 
	C280.436066,464.023865 278.822968,464.023865 276.992828,464.023865 
	C276.992828,457.428650 276.992828,451.024902 276.992828,444.201813 
	C280.608459,444.016052 284.333130,443.603027 288.044250,443.701294 
	C291.248230,443.786133 293.201202,445.700531 293.445343,449.041748 
	C293.690033,452.390900 291.971436,454.341919 288.857208,455.096924 
	C286.797821,455.596191 284.682526,455.864777 282.091553,456.325684 
	C282.091553,457.901733 282.091553,459.497559 282.054749,461.861237 
	C282.028351,463.093994 282.038757,463.558929 282.049164,464.023865 
M282.054138,453.010803 
	C283.569702,452.933929 285.644196,453.425232 286.452850,452.629761 
	C287.368500,451.728943 287.828552,449.328217 287.257141,448.205597 
	C286.480072,446.679016 284.537598,445.745697 281.997314,443.654358 
	C281.997314,447.634857 281.997314,449.891785 282.054138,453.010803 
z"/>
<path fill="#F2ECE9" opacity="1.000000" stroke="none" 
	d="
M292.929291,393.899048 
	C292.847351,390.829193 292.847351,388.029663 292.847351,385.315765 
	C290.553528,385.584381 288.632935,385.809296 286.353973,386.076172 
	C286.353973,379.784973 286.353973,373.857513 286.353973,367.567383 
	C288.626831,367.567383 290.880371,367.567383 293.948883,367.567383 
	C293.948883,376.255737 293.948883,385.167236 293.854492,394.539001 
	C293.510468,394.722595 293.260864,394.445984 292.929291,393.899048 
z"/>
<path fill="#3A2520" opacity="1.000000" stroke="none" 
	d="
M265.795929,444.897339 
	C264.571869,445.632996 263.279480,446.261902 263.088318,447.132629 
	C262.942474,447.796875 264.036316,448.999268 264.855652,449.550934 
	C266.291290,450.517548 267.918457,451.214081 269.502716,451.942566 
	C272.966187,453.535095 274.798553,456.283508 273.661865,459.901672 
	C272.504395,463.586029 269.194061,464.395325 265.603638,464.005768 
	C264.951477,463.934998 264.302155,463.837982 262.135071,463.555267 
	C264.593781,463.102966 265.706451,463.122223 266.581360,462.675629 
	C267.493134,462.210205 268.703949,461.368011 268.815216,460.557617 
	C268.935364,459.682129 268.156830,458.366791 267.371643,457.755280 
	C266.087128,456.754913 264.453156,456.216064 263.013947,455.399109 
	C259.051971,453.150177 257.711090,449.651001 259.482178,446.315796 
	C261.188171,443.103119 265.006561,442.231812 269.951477,444.471619 
	C268.211670,444.667847 267.206451,444.781219 265.795929,444.897339 
z"/>
<path fill="#381D15" opacity="1.000000" stroke="none" 
	d="
M180.953827,368.255188 
	C176.278503,366.244110 171.603180,364.233002 166.928284,362.220947 
	C170.292374,355.553406 170.390045,355.502869 177.250488,357.528717 
	C179.628525,358.230896 182.112778,358.738403 184.301346,359.830292 
	C185.097916,360.227692 185.175522,362.066254 185.298141,363.844635 
	C183.661362,365.713074 182.307602,366.984131 180.953827,368.255188 
z"/>
<path fill="#3D2620" opacity="1.000000" stroke="none" 
	d="
M341.009827,464.047424 
	C337.259155,463.701935 335.957855,461.168976 335.857544,457.895233 
	C335.715820,453.269897 335.821594,448.636993 335.821594,443.567993 
	C337.728973,443.465546 339.465729,443.372253 341.460602,443.265106 
	C341.891052,449.423798 342.301331,455.293701 342.728516,461.802490 
	C342.166870,462.976715 341.588348,463.512054 341.009827,464.047424 
z"/>
<path fill="#3D231C" opacity="1.000000" stroke="none" 
	d="
M359.064606,443.574341 
	C359.606384,443.496796 360.148163,443.419220 360.957397,443.649963 
	C361.445892,443.832306 361.666931,443.706329 361.887939,443.580383 
	C362.054382,443.526337 362.220764,443.472260 362.755310,443.793762 
	C363.720856,444.771637 364.318207,445.373932 364.915558,445.976227 
	C364.929962,451.335205 364.944366,456.694214 364.495117,462.551941 
	C362.151184,463.016602 360.270935,462.982513 358.390656,462.948456 
	C358.333221,457.587708 358.275787,452.226990 358.424500,446.239807 
	C358.775269,444.933685 358.919922,444.253998 359.064606,443.574341 
z"/>
<path fill="#301E1A" opacity="1.000000" stroke="none" 
	d="
M248.029999,382.090210 
	C240.553772,383.126801 245.883530,377.432983 243.641052,375.007080 
	C252.315063,375.007080 260.179474,375.007080 268.380432,375.007080 
	C268.380432,377.232086 268.380432,379.448547 268.380432,382.335999 
	C263.863708,382.335999 259.301331,382.335999 254.518616,381.884613 
	C257.433594,381.282715 260.613251,381.387299 263.682098,380.854065 
	C264.881348,380.645691 265.831604,379.004211 266.895264,378.015442 
	C265.799835,377.341431 264.733948,376.150726 263.603638,376.085999 
	C259.478058,375.849792 255.326340,375.875519 251.194214,376.042908 
	C249.526276,376.110443 247.883438,376.797302 246.229156,377.202362 
	C246.829437,378.831635 247.429718,380.460938 248.029999,382.090210 
z"/>
<path fill="#38211B" opacity="1.000000" stroke="none" 
	d="
M322.983124,443.382904 
	C326.804413,442.546082 330.189209,443.590057 331.825470,447.086365 
	C334.161530,452.077942 334.273041,457.274475 330.366699,461.943176 
	C328.942169,460.884583 327.998779,459.944824 326.985901,458.549316 
	C326.894562,454.997437 327.281952,451.818420 326.679382,448.839691 
	C326.374725,447.333832 324.279510,446.190155 322.987671,444.632507 
	C322.982056,444.049194 322.982574,443.716034 322.983124,443.382904 
z"/>
<path fill="#33160E" opacity="1.000000" stroke="none" 
	d="
M248.443695,382.202515 
	C247.429718,380.460938 246.829437,378.831635 246.229156,377.202362 
	C247.883438,376.797302 249.526276,376.110443 251.194214,376.042908 
	C255.326340,375.875519 259.478058,375.849792 263.603638,376.085999 
	C264.733948,376.150726 265.799835,377.341431 266.895264,378.015442 
	C265.831604,379.004211 264.881348,380.645691 263.682098,380.854065 
	C260.613251,381.387299 257.433594,381.282715 254.134277,381.756714 
	C252.266022,382.158386 250.561707,382.236603 248.443695,382.202515 
z"/>
<path fill="#342F2E" opacity="1.000000" stroke="none" 
	d="
M397.999878,454.925903 
	C389.332275,454.925995 381.164612,454.925995 372.996948,454.925995 
	C373.006226,454.416290 373.015472,453.906555 373.024750,453.396851 
	C388.400726,453.396851 403.776733,453.396851 419.152740,453.396851 
	C419.180847,453.906494 419.208923,454.416138 419.237030,454.925781 
	C412.324646,454.925781 405.412231,454.925781 397.999878,454.925903 
z"/>
<path fill="#2F2322" opacity="1.000000" stroke="none" 
	d="
M214.114517,455.974915 
	C211.448456,455.974915 209.267944,455.974915 207.087433,455.974915 
	C207.110855,455.462189 207.134277,454.949493 207.157700,454.436768 
	C222.587082,454.436768 238.016464,454.436768 253.445847,454.436768 
	C253.464279,454.949493 253.482712,455.462189 253.501144,455.974915 
	C240.534119,455.974915 227.567093,455.974915 214.114517,455.974915 
z"/>
<path fill="#1E0C07" opacity="1.000000" stroke="none" 
	d="
M268.930450,419.517090 
	C268.575256,414.574097 268.001831,409.162750 268.089172,403.762085 
	C268.149109,400.055878 267.061646,398.678802 263.284271,398.947723 
	C259.145630,399.242279 254.956161,399.222473 250.814301,398.951050 
	C247.184784,398.713196 245.706421,399.784149 245.921555,403.651947 
	C246.226044,409.125793 246.001297,414.629089 245.738098,420.562592 
	C245.121658,420.986572 244.769882,420.967743 244.418091,420.948914 
	C244.418091,413.481903 244.418091,406.014893 244.418091,398.192657 
	C252.499496,398.192657 260.536865,398.192657 268.993927,398.192657 
	C268.993927,405.148071 268.993927,412.100677 268.930450,419.517090 
z"/>
<path fill="#100200" opacity="1.000000" stroke="none" 
	d="
M347.537415,366.929993 
	C343.779236,367.345856 339.564301,367.750824 335.339783,367.971130 
	C332.539307,368.117188 329.725037,367.998810 327.039734,367.998810 
	C325.006836,374.334259 325.440491,374.938416 331.515839,374.991425 
	C343.808289,375.098663 356.100494,375.229645 368.289551,375.691956 
	C367.119385,376.100769 366.052429,376.168396 364.985504,376.236023 
	C351.719543,376.236023 338.453552,376.236023 324.952698,376.236023 
	C324.952698,372.987610 324.952698,370.230072 324.952698,366.840576 
	C332.249573,366.840576 339.663086,366.840576 347.537415,366.929993 
z"/>
<path fill="#38211B" opacity="1.000000" stroke="none" 
	d="
M318.970947,463.115906 
	C314.357147,459.502197 313.463715,453.591522 317.182495,446.699646 
	C318.578339,448.190552 319.572083,449.568085 319.902740,451.089630 
	C320.464783,453.676300 320.609375,456.353638 321.046173,459.315277 
	C321.317688,460.303925 321.472382,460.970215 321.244873,461.739136 
	C320.232056,462.266510 319.601501,462.691193 318.970947,463.115906 
z"/>
<path fill="#E3D9D6" opacity="1.000000" stroke="none" 
	d="
M227.198410,376.625793 
	C222.454727,375.055725 217.851685,373.292877 213.314102,371.555084 
	C214.351807,365.665375 218.087646,365.849701 222.643204,366.698212 
	C222.004807,368.459290 221.459351,369.963989 220.765762,371.877289 
	C223.053055,373.016541 225.389603,374.180328 227.933929,375.629303 
	C227.865768,376.074310 227.598206,376.247131 227.198410,376.625793 
z"/>
<path fill="#1C0501" opacity="1.000000" stroke="none" 
	d="
M172.875015,384.315674 
	C173.253052,388.193970 173.787399,392.065033 173.966446,395.952484 
	C174.156708,400.083069 174.249390,404.247070 173.940933,408.363220 
	C173.652374,412.214050 175.191925,413.447083 178.797821,413.021606 
	C180.418732,412.830322 182.080994,412.989197 183.768906,413.601318 
	C182.672226,413.716766 181.575562,413.832214 180.095459,414.054993 
	C177.580856,414.274078 175.449692,414.385803 172.530533,414.538879 
	C172.530533,404.550232 172.530533,394.844177 172.661926,384.711029 
	C172.793304,384.283936 172.875015,384.315674 172.875015,384.315674 
z"/>
<path fill="#342F2E" opacity="1.000000" stroke="none" 
	d="
M341.344513,464.186279 
	C341.588348,463.512054 342.166870,462.976715 342.901245,462.184448 
	C347.648468,463.387024 349.649506,461.263916 349.764069,456.891083 
	C349.879791,452.472900 349.789551,448.049316 349.789551,443.628113 
	C350.193176,443.555298 350.596771,443.482513 351.000397,443.409698 
	C351.311279,444.284607 351.860077,445.151398 351.890228,446.035889 
	C351.997223,449.174713 351.983032,452.320831 351.913269,455.461914 
	C351.748138,462.899292 349.360260,464.944153 341.344513,464.186279 
z"/>
<path fill="#28130E" opacity="1.000000" stroke="none" 
	d="
M232.001572,365.600891 
	C230.562943,361.864624 227.707474,360.758820 223.537384,360.911774 
	C218.483521,361.097137 213.401962,360.528015 208.085663,359.909210 
	C216.060974,359.533081 224.283020,359.533081 233.171585,359.533081 
	C232.809052,361.507538 232.467987,363.365143 232.001572,365.600891 
z"/>
<path fill="#422E27" opacity="1.000000" stroke="none" 
	d="
M310.492004,401.820312 
	C309.660187,403.355438 308.121490,404.474304 307.656708,405.934906 
	C306.861145,408.434814 306.737762,411.148682 306.252930,414.284821 
	C300.487335,411.403534 302.676147,407.063538 302.603485,403.262207 
	C303.155823,405.278259 303.481476,407.502655 303.807129,409.727020 
	C304.161987,409.763824 304.516846,409.800659 304.871704,409.837463 
	C305.662140,406.690186 306.452576,403.542908 307.350403,399.967987 
	C308.221893,400.442810 309.245087,401.000305 310.492004,401.820312 
z"/>
<path fill="#422E27" opacity="1.000000" stroke="none" 
	d="
M302.992798,379.582581 
	C302.596161,375.003693 301.976868,370.031525 302.179474,365.093018 
	C302.316711,361.746613 301.172455,360.004364 298.090881,358.734467 
	C299.710022,358.311218 301.451141,358.224335 303.120148,358.141022 
	C303.120148,365.487823 303.120148,372.345734 302.992798,379.582581 
z"/>
<path fill="#1C0501" opacity="1.000000" stroke="none" 
	d="
M460.350830,383.369019 
	C459.881470,381.559296 459.881470,379.612976 459.881470,376.679871 
	C445.129974,376.679871 430.886719,376.679871 416.795868,376.356598 
	C420.352539,375.868347 423.756805,375.703339 427.161072,375.538361 
	C431.067139,375.554199 434.973175,375.570038 439.778137,375.751801 
	C445.171478,375.796600 449.665955,375.675476 454.160400,375.554352 
	C456.272552,375.554352 458.384705,375.554352 461.161652,375.554352 
	C461.042084,378.242645 460.931152,380.737518 460.350830,383.369019 
z"/>
<path fill="#28130E" opacity="1.000000" stroke="none" 
	d="
M381.485657,375.988617 
	C380.679626,368.014099 380.675781,368.163361 372.434570,367.951782 
	C368.006042,367.838074 363.593323,367.108765 359.435852,366.342529 
	C360.121307,366.109009 360.544434,366.190155 360.967560,366.271332 
	C368.110168,366.271332 375.252747,366.271332 383.287964,366.271332 
	C382.677216,370.122070 382.231720,372.930969 381.485657,375.988617 
z"/>
<path fill="#100200" opacity="1.000000" stroke="none" 
	d="
M276.990906,394.491425 
	C277.331604,394.354828 277.980194,394.686981 277.978424,395.015686 
	C277.927979,404.459106 277.812286,413.902222 277.433472,423.654938 
	C277.105072,414.295868 277.050354,404.627228 276.990906,394.491425 
z"/>
<path fill="#28130E" opacity="1.000000" stroke="none" 
	d="
M319.221252,463.381348 
	C319.601501,462.691193 320.232056,462.266510 321.508789,461.933044 
	C325.802185,464.286316 326.210938,461.292053 327.055389,459.005035 
	C327.998779,459.944824 328.942169,460.884583 330.048035,462.121735 
	C326.913239,465.298706 323.300842,465.421600 319.221252,463.381348 
z"/>
<path fill="#28130E" opacity="1.000000" stroke="none" 
	d="
M320.929382,458.992889 
	C320.609375,456.353638 320.464783,453.676300 319.902740,451.089630 
	C319.572083,449.568085 318.578339,448.190552 317.453857,446.456177 
	C318.769501,445.192017 320.514069,444.219940 322.620880,443.315399 
	C322.982574,443.716034 322.982056,444.049194 322.659729,444.859467 
	C321.868439,449.888702 321.398926,454.440796 320.929382,458.992889 
z"/>
<path fill="#422E27" opacity="1.000000" stroke="none" 
	d="
M272.648499,358.275818 
	C271.808929,363.926422 268.334198,365.128693 263.151733,363.149323 
	C265.203796,362.865784 267.455994,362.865784 269.540039,362.865784 
	C270.551178,361.117188 271.407715,359.635925 272.648499,358.275818 
z"/>
<path fill="#F5F3F0" opacity="1.000000" stroke="none" 
	d="
M385.015991,412.102142 
	C384.251770,412.050079 383.487579,411.998047 381.936798,411.969238 
	C379.763336,411.937897 378.376465,411.883331 376.989563,411.828766 
	C379.685028,409.350555 385.760712,409.177338 388.294617,411.741425 
	C387.579346,411.955017 387.117157,411.926422 386.077393,411.926514 
	C385.338531,412.004150 385.177277,412.053131 385.015991,412.102142 
z"/>
<path fill="#3A2520" opacity="1.000000" stroke="none" 
	d="
M244.300995,421.354218 
	C244.769882,420.967743 245.121658,420.986572 245.737640,421.035278 
	C247.480377,424.604187 250.015472,422.859467 252.655930,422.163452 
	C253.865143,425.929077 250.920853,424.882446 249.087631,424.791901 
	C247.025162,424.690063 243.594833,426.310577 244.300995,421.354218 
z"/>
<path fill="#220B06" opacity="1.000000" stroke="none" 
	d="
M376.572388,411.898071 
	C378.376465,411.883331 379.763336,411.937897 381.562347,412.059387 
	C376.066223,412.143768 370.157959,412.161255 364.001709,411.787750 
	C367.887512,411.586975 372.021393,411.777191 376.572388,411.898071 
z"/>
<path fill="#F5F3F0" opacity="1.000000" stroke="none" 
	d="
M406.322632,360.083801 
	C403.638336,360.455353 400.613800,360.712982 397.471954,360.584656 
	C400.230591,360.122406 403.106476,360.046143 406.322632,360.083801 
z"/>
<path fill="#483D3B" opacity="1.000000" stroke="none" 
	d="
M365.261658,445.750488 
	C364.318207,445.373932 363.720856,444.771637 363.006989,443.868164 
	C365.258972,443.566956 367.627441,443.566956 369.995941,443.566956 
	C370.007385,444.088287 370.018799,444.609619 370.030243,445.130951 
	C368.556061,445.262207 367.081909,445.393494 365.261658,445.750488 
z"/>
<path fill="#28130E" opacity="1.000000" stroke="none" 
	d="
M359.133301,363.630341 
	C358.035706,361.980988 357.097778,359.953613 356.088562,357.772125 
	C354.245483,357.772125 352.338257,357.772125 350.035126,357.600861 
	C350.901306,357.069397 352.163422,356.709198 353.977966,356.236450 
	C354.684906,356.028015 354.839355,355.932068 354.993774,355.836151 
	C355.947632,356.006348 356.901520,356.176544 358.017090,356.983551 
	C358.486145,358.411102 358.793457,359.201843 359.100800,359.992584 
	C359.164856,361.079163 359.228912,362.165741 359.133301,363.630341 
z"/>
<path fill="#F5F3F0" opacity="1.000000" stroke="none" 
	d="
M364.986725,376.653748 
	C366.052429,376.168396 367.119385,376.100769 368.585663,375.984497 
	C367.868011,377.898224 366.750977,379.860565 365.337006,381.959900 
	C365.022675,380.421753 365.005310,378.746643 364.986725,376.653748 
z"/>
<path fill="#483D3B" opacity="1.000000" stroke="none" 
	d="
M358.661499,443.431824 
	C358.919922,444.253998 358.775269,444.933685 358.421387,445.767334 
	C356.422363,445.568787 354.632568,445.216248 352.842773,444.863739 
	C352.853729,444.423767 352.864685,443.983826 352.875671,443.543854 
	C354.669891,443.458984 356.464142,443.374146 358.661499,443.431824 
z"/>
<path fill="#E6DEDB" opacity="1.000000" stroke="none" 
	d="
M180.958084,368.584717 
	C182.307602,366.984131 183.661362,365.713074 185.197189,364.169495 
	C186.007584,364.147095 186.635910,364.397156 187.573242,364.791504 
	C187.111816,366.142151 186.341400,367.348480 185.294922,368.806335 
	C183.951324,369.415588 182.883759,369.773285 181.463135,370.177521 
	C181.060806,369.787445 181.011566,369.350861 180.958084,368.584717 
z"/>
<path fill="#9C8D88" opacity="1.000000" stroke="none" 
	d="
M426.832336,375.324829 
	C423.756805,375.703339 420.352539,375.868347 416.489563,376.078796 
	C415.564117,376.076447 415.097351,376.028656 413.921143,375.994659 
	C412.757050,375.855042 412.302460,375.701599 411.847839,375.548157 
	C411.847839,375.548157 411.731384,375.158661 411.903320,375.050232 
	C414.734955,374.928253 417.394623,374.914703 420.495605,374.949860 
	C422.792480,375.036163 424.648041,375.073730 426.832336,375.324829 
z"/>
<path fill="#483D3B" opacity="1.000000" stroke="none" 
	d="
M358.330566,463.283966 
	C360.270935,462.982513 362.151184,463.016602 364.435211,463.014801 
	C362.649475,463.192474 360.459991,463.405975 358.330566,463.283966 
z"/>
<path fill="#F5F3F0" opacity="1.000000" stroke="none" 
	d="
M397.030273,416.960083 
	C398.149170,418.146515 399.113983,419.690887 400.142395,421.575378 
	C396.785187,422.056671 395.112457,420.931824 397.030273,416.960083 
z"/>
<path fill="#9C8D88" opacity="1.000000" stroke="none" 
	d="
M453.832001,375.338501 
	C449.665955,375.675476 445.171478,375.796600 440.224792,375.739990 
	C439.772552,375.562286 439.707306,375.479370 439.711426,375.427917 
	C442.151428,375.213623 444.587341,375.050751 447.471863,374.942780 
	C449.781525,375.039307 451.642548,375.080963 453.832001,375.338501 
z"/>
<path fill="#422E27" opacity="1.000000" stroke="none" 
	d="
M267.355408,370.785706 
	C268.504486,369.518402 270.037170,368.367004 271.911194,367.156860 
	C271.620483,369.401337 271.098969,371.835724 267.355408,370.785706 
z"/>
<path fill="#1C0501" opacity="1.000000" stroke="none" 
	d="
M411.398376,375.561493 
	C412.302460,375.701599 412.757050,375.855042 413.574280,376.063812 
	C409.785675,376.251495 405.634399,376.383850 401.212860,376.192444 
	C404.278015,375.770721 407.613495,375.672791 411.398376,375.561493 
z"/>
<path fill="#F5F3F0" opacity="1.000000" stroke="none" 
	d="
M434.917572,414.004150 
	C433.583374,414.231140 432.133759,414.178741 430.337860,413.997253 
	C431.411133,407.647736 433.206024,414.020233 434.917572,414.004150 
z"/>
<path fill="#809C69" opacity="1.000000" stroke="none" 
	d="
M312.767670,230.700531 
	C312.246124,231.051468 311.838898,231.007965 311.125519,230.935394 
	C311.179718,228.937531 311.540039,226.968704 311.900360,224.999893 
	C312.227539,225.044937 312.554749,225.089981 312.881958,225.135025 
	C312.881958,226.858719 312.881958,228.582397 312.767670,230.700531 
z"/>
<path fill="#F5F3F0" opacity="1.000000" stroke="none" 
	d="
M354.167969,404.927063 
	C355.299896,403.689880 356.854492,402.486969 358.732910,401.231354 
	C359.468964,404.683960 357.485504,405.360687 354.167969,404.927063 
z"/>
<path fill="#422E27" opacity="1.000000" stroke="none" 
	d="
M261.819336,358.672241 
	C260.587555,358.123688 259.424438,357.225464 258.090454,356.050171 
	C260.558014,354.575226 261.824585,355.512543 261.819336,358.672241 
z"/>
<path fill="#F5F3F0" opacity="1.000000" stroke="none" 
	d="
M378.902161,380.761108 
	C379.399719,381.779449 379.897278,382.797791 380.394806,383.816162 
	C379.328705,383.959015 378.262604,384.101837 377.069031,383.652100 
	C377.293457,382.372650 377.645386,381.685791 377.997314,380.998901 
	C377.997314,380.998901 378.000000,381.000000 378.221802,380.926422 
	C378.443604,380.852844 378.902161,380.761108 378.902161,380.761108 
z"/>
<path fill="#422E27" opacity="1.000000" stroke="none" 
	d="
M251.211334,362.392639 
	C249.883591,362.646484 248.191803,363.103455 246.258759,363.301971 
	C247.627426,362.894287 249.237366,362.745026 251.211334,362.392639 
z"/>
<path fill="#F5F3F0" opacity="1.000000" stroke="none" 
	d="
M411.260468,357.017151 
	C410.899872,358.152161 410.253876,359.331665 409.278992,360.355591 
	C409.625122,359.153900 410.300079,358.107758 411.260468,357.017151 
z"/>
<path fill="#F5F3F0" opacity="1.000000" stroke="none" 
	d="
M335.581909,408.019653 
	C335.516418,406.786407 335.814941,405.556580 336.301331,403.552856 
	C337.366760,405.177795 338.075684,406.259003 338.821198,407.675934 
	C337.887177,408.015442 336.916534,408.019226 335.581909,408.019653 
z"/>
<path fill="#28130E" opacity="1.000000" stroke="none" 
	d="
M377.625885,381.010254 
	C377.645386,381.685791 377.293457,382.372650 376.892822,383.348846 
	C376.265015,384.180054 375.685913,384.721954 374.790833,385.602722 
	C374.474854,385.941559 374.019775,386.064117 374.019775,386.064117 
	C375.097992,384.383270 376.176239,382.702454 377.625885,381.010254 
z"/>
<path fill="#28130E" opacity="1.000000" stroke="none" 
	d="
M368.870605,392.240601 
	C369.651337,391.049255 370.668427,389.659515 372.007996,388.425720 
	C372.330444,388.581665 372.262268,389.019073 372.262268,389.019073 
	C371.210480,390.026764 370.158722,391.034485 368.870605,392.240601 
z"/>
<path fill="#422E27" opacity="1.000000" stroke="none" 
	d="
M254.728333,355.891235 
	C253.803909,356.592041 252.609329,357.185272 251.100479,357.927002 
	C250.435211,356.015533 250.435211,356.015533 254.728333,355.891235 
z"/>
<path fill="#28130E" opacity="1.000000" stroke="none" 
	d="
M364.558136,396.194916 
	C365.078369,395.297546 365.881409,394.277588 367.060883,393.367737 
	C366.571869,394.342682 365.706390,395.207489 364.558136,396.194916 
z"/>
<path fill="#F5F3F0" opacity="1.000000" stroke="none" 
	d="
M372.625336,389.011017 
	C372.262268,389.019073 372.330444,388.581665 372.380249,388.366028 
	C372.928925,387.635162 373.427765,387.119904 373.973175,386.334381 
	C374.019775,386.064117 374.474854,385.941559 374.704895,385.890503 
	C374.286072,386.893921 373.637238,387.948425 372.625336,389.011017 
z"/>
<path fill="#28130E" opacity="1.000000" stroke="none" 
	d="
M349.091858,357.477203 
	C349.159790,358.273041 348.890961,359.088409 348.078766,359.918274 
	C347.535400,359.932739 347.178070,359.923218 347.178070,359.923218 
	C347.703735,359.114410 348.229401,358.305573 349.091858,357.477203 
z"/>
<path fill="#28130E" opacity="1.000000" stroke="none" 
	d="
M378.964722,380.465729 
	C378.902161,380.761108 378.443604,380.852844 378.221161,380.924866 
	C378.465607,380.038208 378.932465,379.079529 379.752747,378.088989 
	C379.746490,378.761505 379.386871,379.465942 378.964722,380.465729 
z"/>
<path fill="#F5F3F0" opacity="1.000000" stroke="none" 
	d="
M387.986053,419.762878 
	C387.731903,419.158661 387.795288,418.429077 387.955170,417.018829 
	C388.044373,415.895813 388.037109,415.453430 388.029816,415.011078 
	C388.029816,415.011078 388.248291,415.105316 388.365173,415.127563 
	C388.422546,416.645721 388.363068,418.141602 387.986053,419.762878 
z"/>
<path fill="#F5F3F0" opacity="1.000000" stroke="none" 
	d="
M359.336426,359.797974 
	C358.793457,359.201843 358.486145,358.411102 358.226837,357.301270 
	C358.707275,357.855896 359.139679,358.729645 359.336426,359.797974 
z"/>
<path fill="#D4CECB" opacity="1.000000" stroke="none" 
	d="
M282.343445,464.017273 
	C282.038757,463.558929 282.028351,463.093994 282.102356,462.290649 
	C282.337097,462.638367 282.487427,463.324524 282.343445,464.017273 
z"/>
<path fill="#F5F3F0" opacity="1.000000" stroke="none" 
	d="
M398.408752,400.046631 
	C398.800873,400.412109 398.903168,400.840607 399.119385,401.585999 
	C398.861847,401.305115 398.490387,400.707397 398.408752,400.046631 
z"/>
<path fill="#28130E" opacity="1.000000" stroke="none" 
	d="
M362.321960,398.004150 
	C362.572144,397.421387 363.118408,396.775208 363.985291,396.204803 
	C363.743286,396.833954 363.180664,397.387360 362.321960,398.004150 
z"/>
<path fill="#F5F3F0" opacity="1.000000" stroke="none" 
	d="
M352.011414,407.598450 
	C351.525360,407.620605 351.044098,407.317078 350.562866,407.013489 
	C350.846924,406.670654 351.131012,406.327850 351.701691,405.977600 
	C351.997620,406.404388 352.006927,406.838562 352.011414,407.598450 
z"/>
<path fill="#F5F3F0" opacity="1.000000" stroke="none" 
	d="
M360.966644,365.952148 
	C360.544434,366.190155 360.121307,366.109009 359.380371,365.931641 
	C359.069641,365.385437 359.076660,364.935455 359.251038,364.192200 
	C359.934143,364.476929 360.449951,365.054932 360.966644,365.952148 
z"/>
<path fill="#F5F3F0" opacity="1.000000" stroke="none" 
	d="
M401.867493,410.791077 
	C401.509827,411.221313 401.014252,411.429932 400.244629,411.581604 
	C400.556915,411.206238 401.143250,410.887848 401.867493,410.791077 
z"/>
<path fill="#F5F3F0" opacity="1.000000" stroke="none" 
	d="
M414.824158,405.748260 
	C414.518646,406.286530 414.046356,406.601837 413.283539,406.907959 
	C413.547791,406.440948 414.102600,405.983154 414.824158,405.748260 
z"/>
<path fill="#F5F3F0" opacity="1.000000" stroke="none" 
	d="
M346.927612,360.069427 
	C347.178070,359.923218 347.535400,359.932739 347.704987,359.989197 
	C347.887604,360.481567 347.900635,360.917480 347.880310,361.682068 
	C347.457001,361.412415 347.067078,360.814026 346.927612,360.069427 
z"/>
<path fill="#F5F3F0" opacity="1.000000" stroke="none" 
	d="
M395.676453,365.194092 
	C395.976929,365.758118 396.043762,366.510468 396.004272,367.628113 
	C395.746246,367.123077 395.594513,366.252747 395.676453,365.194092 
z"/>
<path fill="#F5F3F0" opacity="1.000000" stroke="none" 
	d="
M439.002136,402.284363 
	C439.357056,402.723572 439.711029,403.494904 439.951477,404.626953 
	C439.559052,404.197266 439.280151,403.406860 439.002136,402.284363 
z"/>
<path fill="#F5F3F0" opacity="1.000000" stroke="none" 
	d="
M348.202667,364.674377 
	C348.384430,365.092896 348.466461,365.887085 348.224579,366.634216 
	C347.968079,366.074768 348.035522,365.562439 348.202667,364.674377 
z"/>
<path fill="#3A2520" opacity="1.000000" stroke="none" 
	d="
M271.609589,444.812683 
	C271.501831,444.812500 271.439117,444.919952 271.376404,445.027405 
	C271.469116,444.991699 271.561859,444.955994 271.609589,444.812683 
z"/>
<path fill="#28130E" opacity="1.000000" stroke="none" 
	d="
M380.325317,377.948608 
	C380.264130,377.523773 380.460907,376.935059 380.957458,376.228821 
	C381.032562,376.669098 380.807892,377.226898 380.325317,377.948608 
z"/>
<path fill="#381D15" opacity="1.000000" stroke="none" 
	d="
M172.886597,384.243896 
	C172.875015,384.315674 172.793304,384.283936 172.829102,384.293396 
	C172.601791,384.102692 172.338669,383.902557 171.594299,383.583099 
	C171.531769,383.305054 171.950485,383.146362 172.458191,383.270081 
	C172.690842,383.718567 172.834518,383.884583 172.978210,384.050629 
	C172.978210,384.050629 172.898163,384.172089 172.886597,384.243896 
z"/>
<path fill="#1E0C07" opacity="1.000000" stroke="none" 
	d="
M268.181580,423.942230 
	C268.049561,423.433716 268.187103,422.976135 268.590820,422.272217 
	C268.721710,422.681641 268.586456,423.337372 268.181580,423.942230 
z"/>
<path fill="#F5F3F0" opacity="1.000000" stroke="none" 
	d="
M401.880096,388.201477 
	C402.052704,388.693665 401.908905,389.410187 401.507446,390.394470 
	C401.354462,389.916809 401.459076,389.171295 401.880096,388.201477 
z"/>
<path fill="#F5F3F0" opacity="1.000000" stroke="none" 
	d="
M439.628052,412.169434 
	C439.754517,412.574646 439.664795,413.139557 439.280975,413.775055 
	C439.128510,413.340149 439.270172,412.834656 439.628052,412.169434 
z"/>
<path fill="#F5F3F0" opacity="1.000000" stroke="none" 
	d="
M411.618774,374.102203 
	C411.847076,374.200348 411.930939,374.387238 411.827393,374.817657 
	C411.534241,374.871918 411.404907,374.690826 411.335144,374.489105 
	C411.309418,374.414703 411.423859,374.291779 411.618774,374.102203 
z"/>
<path fill="#809C69" opacity="1.000000" stroke="none" 
	d="
M312.946533,260.757202 
	C312.775452,260.740753 312.670349,260.463593 312.708191,260.084869 
	C312.904907,260.154388 312.958740,260.325409 312.946533,260.757202 
z"/>
<path fill="#F5F3F0" opacity="1.000000" stroke="none" 
	d="
M354.885437,355.686066 
	C354.839355,355.932068 354.684906,356.028015 354.264008,356.065491 
	C354.257446,355.850037 354.517273,355.692993 354.885437,355.686066 
z"/>
<path fill="#483D3B" opacity="1.000000" stroke="none" 
	d="
M361.719269,443.483154 
	C361.666931,443.706329 361.445892,443.832306 361.212891,443.757874 
	C361.200958,443.557434 361.550598,443.385895 361.719269,443.483154 
z"/>
<path fill="#422E27" opacity="1.000000" stroke="none" 
	d="
M274.253723,367.141052 
	C274.279633,366.938629 274.552917,366.827972 274.910889,366.882996 
	C274.830719,367.110046 274.665924,367.171448 274.253723,367.141052 
z"/>
<path fill="#422E27" opacity="1.000000" stroke="none" 
	d="
M276.135468,367.157104 
	C276.245392,367.162231 276.554932,367.294830 276.941467,367.680176 
	C276.838928,367.665955 276.611176,367.449829 276.135468,367.157104 
z"/>
<path fill="#28130E" opacity="1.000000" stroke="none" 
	d="
M205.857605,359.452179 
	C205.779770,359.670166 205.489395,359.755554 205.172058,359.596191 
	C205.311752,359.340820 205.478409,359.330200 205.857605,359.452179 
z"/>
<path fill="#1E0C07" opacity="1.000000" stroke="none" 
	d="
M261.256287,423.922882 
	C261.288300,423.743530 261.555054,423.661926 261.902039,423.734741 
	C261.818542,423.932983 261.654785,423.976807 261.256287,423.922882 
z"/>
<path fill="#F5F3F0" opacity="1.000000" stroke="none" 
	d="
M447.915863,422.771362 
	C447.866364,422.526886 448.155212,422.206726 448.744202,421.739105 
	C448.780945,421.959656 448.517578,422.327698 447.915863,422.771362 
z"/>
<path fill="#F5F3F0" opacity="1.000000" stroke="none" 
	d="
M359.261108,421.380798 
	C359.406830,421.168793 359.807190,421.155182 360.478912,421.279175 
	C360.338745,421.470947 359.927277,421.525055 359.261108,421.380798 
z"/>
<path fill="#F5F3F0" opacity="1.000000" stroke="none" 
	d="
M428.202972,417.683350 
	C428.426300,417.724762 428.610748,418.060211 428.758118,418.691040 
	C428.535370,418.650055 428.349731,418.313721 428.202972,417.683350 
z"/>
<path fill="#28130E" opacity="1.000000" stroke="none" 
	d="
M367.665161,393.369873 
	C367.598816,393.129669 367.740631,392.806885 368.168701,392.551331 
	C368.326202,392.898102 368.132324,393.121002 367.665161,393.369873 
z"/>
<path fill="#F5F3F0" opacity="1.000000" stroke="none" 
	d="
M339.217102,408.849731 
	C339.470306,408.802826 339.770630,409.063721 340.134216,409.624603 
	C339.886383,409.668915 339.575287,409.413208 339.217102,408.849731 
z"/>
<path fill="#D4CECB" opacity="1.000000" stroke="none" 
	d="
M215.903656,405.372742 
	C215.772324,406.376373 215.640976,407.380035 214.856323,408.434143 
	C204.089355,408.563843 193.975677,408.643127 183.862000,408.722382 
	C181.957855,407.286682 181.418335,406.073700 185.018036,405.399567 
	C186.113251,405.300446 186.588913,405.236938 187.064575,405.173401 
	C188.748520,405.256348 190.432465,405.339233 192.984116,405.390656 
	C198.259323,405.294708 202.666840,405.230255 207.074341,405.165833 
	C207.495789,405.247681 207.917221,405.329529 208.919724,405.367310 
	C209.685410,405.271179 209.870041,405.219177 210.054657,405.167236 
	C211.422699,405.252869 212.790756,405.338501 214.783203,405.390320 
	C215.407623,405.356476 215.903656,405.372742 215.903656,405.372742 
z"/>
<path fill="#EBE6E1" opacity="1.000000" stroke="none" 
	d="
M191.964523,397.381317 
	C196.971542,397.465271 201.978561,397.549255 207.755829,397.611115 
	C210.401611,397.514587 212.277145,397.440155 214.152679,397.365753 
	C214.800247,398.304962 215.447815,399.244171 215.563263,400.535309 
	C204.363159,400.893860 193.695175,400.900513 183.027191,400.907166 
	C182.955643,399.977783 182.884094,399.048401 183.371872,397.868958 
	C186.608963,397.539734 189.286743,397.460541 191.964523,397.381317 
z"/>
<path fill="#E6DEDB" opacity="1.000000" stroke="none" 
	d="
M187.008133,377.024017 
	C186.357391,374.573792 185.706650,372.123535 184.995941,369.325073 
	C187.472275,370.184814 190.008591,371.392731 192.829071,372.736023 
	C196.342209,370.355957 198.559753,364.120697 205.473495,367.035675 
	C201.312744,373.769714 194.751877,376.202209 187.466614,377.906738 
	C187.038330,377.445801 187.023239,377.234924 187.008133,377.024017 
z"/>
<path fill="#EBE3DF" opacity="1.000000" stroke="none" 
	d="
M182.998749,393.039154 
	C183.596176,392.055756 184.178818,390.225983 184.793243,390.215240 
	C194.746704,390.041443 204.704590,390.067871 214.659744,390.190338 
	C215.179337,390.196716 215.683395,391.465454 215.628113,392.589539 
	C204.373947,393.034790 193.686340,393.036957 182.998749,393.039154 
z"/>
<path fill="#E6DEDB" opacity="1.000000" stroke="none" 
	d="
M203.942566,380.820435 
	C206.944016,377.386566 209.932297,377.343811 213.369705,379.507233 
	C215.443039,380.812195 217.769073,381.715607 219.872665,383.495819 
	C213.546829,383.495819 207.220978,383.495819 200.088089,383.495819 
	C201.639999,382.420837 202.640533,381.727814 203.942566,380.820435 
z"/>
<path fill="#E3D9D6" opacity="1.000000" stroke="none" 
	d="
M186.654434,377.071167 
	C187.023239,377.234924 187.038330,377.445801 187.088013,377.971893 
	C187.590988,379.990082 188.059357,381.693085 188.691757,383.992432 
	C183.668167,383.992432 178.789886,383.992432 173.444916,384.021545 
	C172.834518,383.884583 172.690842,383.718567 172.686707,383.254211 
	C177.317749,381.010040 181.809250,379.064209 186.654434,377.071167 
z"/>
<path fill="#100200" opacity="1.000000" stroke="none" 
	d="
M183.291199,393.338226 
	C193.686340,393.036957 204.373947,393.034790 215.529770,393.023315 
	C214.613876,393.343811 213.228729,393.961823 211.845810,393.956940 
	C202.424835,393.923676 193.004318,393.759338 183.291199,393.338226 
z"/>
<path fill="#1C0501" opacity="1.000000" stroke="none" 
	d="
M183.291656,401.233276 
	C193.695175,400.900513 204.363159,400.893860 215.497040,400.876251 
	C215.438812,401.223724 214.912704,401.897339 214.390854,401.894043 
	C204.112320,401.829529 193.834274,401.686493 183.291656,401.233276 
z"/>
<path fill="#220B06" opacity="1.000000" stroke="none" 
	d="
M184.132629,409.068695 
	C193.975677,408.643127 204.089355,408.563843 214.673889,408.593262 
	C214.636993,409.094269 214.126175,409.832214 213.621887,409.827789 
	C203.881897,409.742188 194.142654,409.569641 184.132629,409.068695 
z"/>
<path fill="#220B06" opacity="1.000000" stroke="none" 
	d="
M191.813019,397.057556 
	C189.286743,397.460541 186.608963,397.539734 183.483948,397.600708 
	C185.911636,397.299561 188.786560,397.016693 191.813019,397.057556 
z"/>
<path fill="#220B06" opacity="1.000000" stroke="none" 
	d="
M206.802017,404.837219 
	C202.666840,405.230255 198.259323,405.294708 193.389038,405.263794 
	C197.460739,404.948517 201.995209,404.728577 206.802017,404.837219 
z"/>
<path fill="#220B06" opacity="1.000000" stroke="none" 
	d="
M213.921936,397.028748 
	C212.277145,397.440155 210.401611,397.514587 208.190094,397.476868 
	C209.799805,397.140381 211.745499,396.916077 213.921936,397.028748 
z"/>
<path fill="#220B06" opacity="1.000000" stroke="none" 
	d="
M186.914795,404.915375 
	C186.588913,405.236938 186.113251,405.300446 185.286316,405.272827 
	C185.545013,405.006866 186.155014,404.832123 186.914795,404.915375 
z"/>
<path fill="#220B06" opacity="1.000000" stroke="none" 
	d="
M209.952698,404.976959 
	C209.870041,405.219177 209.685410,405.271179 209.223907,405.244751 
	C209.248260,405.039795 209.549500,404.913269 209.952698,404.976959 
z"/>
<path fill="#220B06" opacity="1.000000" stroke="none" 
	d="
M215.853485,405.162292 
	C215.903656,405.372742 215.407623,405.356476 215.177917,405.262573 
	C215.233231,405.096405 215.518265,405.024139 215.853485,405.162292 
z"/>
<path fill="#220B06" opacity="1.000000" stroke="none" 
	d="
M387.798218,415.130615 
	C388.037109,415.453430 388.044373,415.895813 387.932983,416.649872 
	C387.731750,416.391113 387.649170,415.820618 387.798218,415.130615 
z"/>
<path fill="#220B06" opacity="1.000000" stroke="none" 
	d="
M385.105469,412.256653 
	C385.177277,412.053131 385.338531,412.004150 385.743042,412.024323 
	C385.722443,412.199371 385.458679,412.305298 385.105469,412.256653 
z"/>
<path fill="#EBE6E1" opacity="1.000000" stroke="none" 
	d="
M260.014557,408.303040 
	C260.017731,410.189636 260.017731,411.645752 260.017731,413.432007 
	C257.642792,413.432007 255.610535,413.432007 253.311996,413.432007 
	C253.311996,410.947906 253.311996,408.557648 253.311996,404.562195 
	C255.952957,405.867157 257.982178,406.869843 260.014557,408.303040 
z"/>
<path fill="#EBE6E1" opacity="1.000000" stroke="none" 
	d="
M303.676514,452.354126 
	C302.521515,450.243530 301.822327,448.069733 301.123108,445.895966 
	C301.593719,445.595306 302.064362,445.294617 302.534973,444.993958 
	C303.698517,445.792450 305.797180,446.559082 305.825745,447.396301 
	C305.880646,449.006744 304.763397,450.657135 303.676514,452.354126 
z"/>
<path fill="#EBE3DF" opacity="1.000000" stroke="none" 
	d="
M282.025726,452.579773 
	C281.997314,449.891785 281.997314,447.634857 281.997314,443.654358 
	C284.537598,445.745697 286.480072,446.679016 287.257141,448.205597 
	C287.828552,449.328217 287.368500,451.728943 286.452850,452.629761 
	C285.644196,453.425232 283.569702,452.933929 282.025726,452.579773 
z"/>
<path fill="#F2ECE9" opacity="1.000000" stroke="none" 
	d="
M321.046204,459.315277 
	C321.398926,454.440796 321.868439,449.888702 322.665894,445.109680 
	C324.279510,446.190155 326.374725,447.333832 326.679382,448.839691 
	C327.281952,451.818420 326.894562,454.997437 326.985901,458.549316 
	C326.210938,461.292053 325.802185,464.286316 321.891052,461.830383 
	C321.472382,460.970215 321.317688,460.303925 321.046204,459.315277 
z"/>
</svg>